<svg width="188" height="56" viewBox="0 0 188 56" fill="none" xmlns="http://www.w3.org/2000/svg">
<circle cx="24" cy="28" r="24" fill="#FCEFFF"/>
<path d="M12.75 24.25V37H35.25V24.25H12.75ZM22.3286 32.7569C22.3956 32.8307 22.4472 32.9171 22.4804 33.0111C22.5136 33.1051 22.5277 33.2048 22.5219 33.3043C22.5161 33.4038 22.4906 33.5012 22.4467 33.5907C22.4029 33.6802 22.3417 33.7601 22.2666 33.8257C22.1915 33.8913 22.1041 33.9412 22.0095 33.9726C21.9149 34.004 21.815 34.0163 21.7156 34.0086C21.6162 34.001 21.5194 33.9736 21.4307 33.9281C21.342 33.8825 21.2633 33.8198 21.1991 33.7435L18.1425 30.2448L21.1999 26.7573C21.264 26.6805 21.3428 26.6174 21.4316 26.5716C21.5204 26.5258 21.6175 26.4982 21.7172 26.4904C21.8169 26.4827 21.9171 26.4949 22.0119 26.5264C22.1068 26.558 22.1944 26.6081 22.2696 26.674C22.3448 26.7399 22.4061 26.8201 22.4498 26.91C22.4935 26.9999 22.5189 27.0976 22.5243 27.1974C22.5297 27.2972 22.5151 27.3971 22.4814 27.4912C22.4477 27.5853 22.3955 27.6717 22.3279 27.7454L20.1353 30.2463L22.3286 32.7569ZM26.8286 33.7435C26.7645 33.8198 26.6858 33.8825 26.5971 33.9281C26.5084 33.9736 26.4115 34.001 26.3121 34.0086C26.2128 34.0163 26.1128 34.004 26.0182 33.9726C25.9236 33.9412 25.8362 33.8913 25.7612 33.8257C25.6861 33.7601 25.6248 33.6802 25.581 33.5907C25.5372 33.5012 25.5116 33.4038 25.5058 33.3043C25.5 33.2048 25.5142 33.1051 25.5474 33.0111C25.5805 32.9171 25.6321 32.8307 25.6991 32.7569L27.8925 30.2463L25.6999 27.7439C25.6323 27.6702 25.5801 27.5838 25.5463 27.4897C25.5126 27.3956 25.498 27.2957 25.5035 27.1959C25.5089 27.0961 25.5342 26.9984 25.5779 26.9085C25.6217 26.8186 25.683 26.7384 25.7581 26.6725C25.8333 26.6066 25.9209 26.5565 26.0158 26.5249C26.1107 26.4934 26.2109 26.4812 26.3105 26.4889C26.4102 26.4967 26.5073 26.5243 26.5962 26.5701C26.685 26.6159 26.7638 26.679 26.8279 26.7557L29.8853 30.2432L26.8286 33.7435Z" fill="#A13FB9"/>
<path d="M12.75 19V22.75H35.25V19H12.75ZM15 21.625C14.8517 21.625 14.7067 21.581 14.5833 21.4986C14.46 21.4162 14.3639 21.2991 14.3071 21.162C14.2503 21.025 14.2355 20.8742 14.2644 20.7287C14.2933 20.5832 14.3648 20.4496 14.4697 20.3447C14.5746 20.2398 14.7082 20.1683 14.8537 20.1394C14.9992 20.1105 15.15 20.1253 15.287 20.1821C15.4241 20.2389 15.5412 20.335 15.6236 20.4583C15.706 20.5817 15.75 20.7267 15.75 20.875C15.75 21.0739 15.671 21.2647 15.5303 21.4053C15.3897 21.546 15.1989 21.625 15 21.625ZM17.25 21.625C17.1017 21.625 16.9567 21.581 16.8333 21.4986C16.71 21.4162 16.6139 21.2991 16.5571 21.162C16.5003 21.025 16.4855 20.8742 16.5144 20.7287C16.5433 20.5832 16.6148 20.4496 16.7197 20.3447C16.8246 20.2398 16.9582 20.1683 17.1037 20.1394C17.2492 20.1105 17.4 20.1253 17.537 20.1821C17.6741 20.2389 17.7912 20.335 17.8736 20.4583C17.956 20.5817 18 20.7267 18 20.875C18 21.0739 17.921 21.2647 17.7803 21.4053C17.6397 21.546 17.4489 21.625 17.25 21.625ZM19.5 21.625C19.3517 21.625 19.2067 21.581 19.0833 21.4986C18.96 21.4162 18.8639 21.2991 18.8071 21.162C18.7503 21.025 18.7355 20.8742 18.7644 20.7287C18.7933 20.5832 18.8648 20.4496 18.9697 20.3447C19.0746 20.2398 19.2082 20.1683 19.3537 20.1394C19.4992 20.1105 19.65 20.1253 19.787 20.1821C19.9241 20.2389 20.0412 20.335 20.1236 20.4583C20.206 20.5817 20.25 20.7267 20.25 20.875C20.25 21.0739 20.171 21.2647 20.0303 21.4053C19.8897 21.546 19.6989 21.625 19.5 21.625Z" fill="#A13FB9"/>
<path d="M69.634 34.436C70.954 34.436 72.112 34.694 73.108 35.21C74.116 35.726 74.89 36.464 75.43 37.424C75.982 38.372 76.258 39.476 76.258 40.736C76.258 41.996 75.982 43.1 75.43 44.048C74.89 44.984 74.116 45.71 73.108 46.226C72.112 46.742 70.954 47 69.634 47H65.242V34.436H69.634ZM69.544 44.858C70.864 44.858 71.884 44.498 72.604 43.778C73.324 43.058 73.684 42.044 73.684 40.736C73.684 39.428 73.324 38.408 72.604 37.676C71.884 36.932 70.864 36.56 69.544 36.56H67.762V44.858H69.544ZM87.4143 41.798C87.4143 42.158 87.3903 42.482 87.3423 42.77H80.0523C80.1123 43.49 80.3643 44.054 80.8083 44.462C81.2523 44.87 81.7983 45.074 82.4463 45.074C83.3823 45.074 84.0483 44.672 84.4443 43.868H87.1623C86.8743 44.828 86.3223 45.62 85.5063 46.244C84.6903 46.856 83.6883 47.162 82.5003 47.162C81.5403 47.162 80.6763 46.952 79.9083 46.532C79.1523 46.1 78.5583 45.494 78.1263 44.714C77.7063 43.934 77.4963 43.034 77.4963 42.014C77.4963 40.982 77.7063 40.076 78.1263 39.296C78.5463 38.516 79.1343 37.916 79.8903 37.496C80.6463 37.076 81.5163 36.866 82.5003 36.866C83.4483 36.866 84.2943 37.07 85.0383 37.478C85.7943 37.886 86.3763 38.468 86.7843 39.224C87.2043 39.968 87.4143 40.826 87.4143 41.798ZM84.8043 41.078C84.7923 40.43 84.5583 39.914 84.1023 39.53C83.6463 39.134 83.0883 38.936 82.4283 38.936C81.8043 38.936 81.2763 39.128 80.8443 39.512C80.4243 39.884 80.1663 40.406 80.0703 41.078H84.8043ZM93.4117 44.678L95.9317 37.028H98.6137L94.9237 47H91.8637L88.1917 37.028H90.8917L93.4117 44.678ZM109.299 41.798C109.299 42.158 109.275 42.482 109.227 42.77H101.937C101.997 43.49 102.249 44.054 102.693 44.462C103.137 44.87 103.683 45.074 104.331 45.074C105.267 45.074 105.933 44.672 106.329 43.868H109.047C108.759 44.828 108.207 45.62 107.391 46.244C106.575 46.856 105.573 47.162 104.385 47.162C103.425 47.162 102.561 46.952 101.793 46.532C101.037 46.1 100.443 45.494 100.011 44.714C99.5911 43.934 99.3811 43.034 99.3811 42.014C99.3811 40.982 99.5911 40.076 100.011 39.296C100.431 38.516 101.019 37.916 101.775 37.496C102.531 37.076 103.401 36.866 104.385 36.866C105.333 36.866 106.179 37.07 106.923 37.478C107.679 37.886 108.261 38.468 108.669 39.224C109.089 39.968 109.299 40.826 109.299 41.798ZM106.689 41.078C106.677 40.43 106.443 39.914 105.987 39.53C105.531 39.134 104.973 38.936 104.313 38.936C103.689 38.936 103.161 39.128 102.729 39.512C102.309 39.884 102.051 40.406 101.955 41.078H106.689ZM113.658 33.68V47H111.138V33.68H113.658ZM120.576 47.162C119.616 47.162 118.752 46.952 117.984 46.532C117.216 46.1 116.61 45.494 116.166 44.714C115.734 43.934 115.518 43.034 115.518 42.014C115.518 40.994 115.74 40.094 116.184 39.314C116.64 38.534 117.258 37.934 118.038 37.514C118.818 37.082 119.688 36.866 120.648 36.866C121.608 36.866 122.478 37.082 123.258 37.514C124.038 37.934 124.65 38.534 125.094 39.314C125.55 40.094 125.778 40.994 125.778 42.014C125.778 43.034 125.544 43.934 125.076 44.714C124.62 45.494 123.996 46.1 123.204 46.532C122.424 46.952 121.548 47.162 120.576 47.162ZM120.576 44.966C121.032 44.966 121.458 44.858 121.854 44.642C122.262 44.414 122.586 44.078 122.826 43.634C123.066 43.19 123.186 42.65 123.186 42.014C123.186 41.066 122.934 40.34 122.43 39.836C121.938 39.32 121.332 39.062 120.612 39.062C119.892 39.062 119.286 39.32 118.794 39.836C118.314 40.34 118.074 41.066 118.074 42.014C118.074 42.962 118.308 43.694 118.776 44.21C119.256 44.714 119.856 44.966 120.576 44.966ZM130.147 38.468C130.471 38.012 130.915 37.634 131.479 37.334C132.055 37.022 132.709 36.866 133.441 36.866C134.293 36.866 135.061 37.076 135.745 37.496C136.441 37.916 136.987 38.516 137.383 39.296C137.791 40.064 137.995 40.958 137.995 41.978C137.995 42.998 137.791 43.904 137.383 44.696C136.987 45.476 136.441 46.082 135.745 46.514C135.061 46.946 134.293 47.162 133.441 47.162C132.709 47.162 132.061 47.012 131.497 46.712C130.945 46.412 130.495 46.034 130.147 45.578V51.752H127.627V37.028H130.147V38.468ZM135.421 41.978C135.421 41.378 135.295 40.862 135.043 40.43C134.803 39.986 134.479 39.65 134.071 39.422C133.675 39.194 133.243 39.08 132.775 39.08C132.319 39.08 131.887 39.2 131.479 39.44C131.083 39.668 130.759 40.004 130.507 40.448C130.267 40.892 130.147 41.414 130.147 42.014C130.147 42.614 130.267 43.136 130.507 43.58C130.759 44.024 131.083 44.366 131.479 44.606C131.887 44.834 132.319 44.948 132.775 44.948C133.243 44.948 133.675 44.828 134.071 44.588C134.479 44.348 134.803 44.006 135.043 43.562C135.295 43.118 135.421 42.59 135.421 41.978ZM152.21 36.884C153.434 36.884 154.418 37.262 155.162 38.018C155.918 38.762 156.296 39.806 156.296 41.15V47H153.776V41.492C153.776 40.712 153.578 40.118 153.182 39.71C152.786 39.29 152.246 39.08 151.562 39.08C150.878 39.08 150.332 39.29 149.924 39.71C149.528 40.118 149.33 40.712 149.33 41.492V47H146.81V41.492C146.81 40.712 146.612 40.118 146.216 39.71C145.82 39.29 145.28 39.08 144.596 39.08C143.9 39.08 143.348 39.29 142.94 39.71C142.544 40.118 142.346 40.712 142.346 41.492V47H139.826V37.028H142.346V38.234C142.67 37.814 143.084 37.484 143.588 37.244C144.104 37.004 144.668 36.884 145.28 36.884C146.06 36.884 146.756 37.052 147.368 37.388C147.98 37.712 148.454 38.18 148.79 38.792C149.114 38.216 149.582 37.754 150.194 37.406C150.818 37.058 151.49 36.884 152.21 36.884ZM167.957 41.798C167.957 42.158 167.933 42.482 167.885 42.77H160.595C160.655 43.49 160.907 44.054 161.351 44.462C161.795 44.87 162.341 45.074 162.989 45.074C163.925 45.074 164.591 44.672 164.987 43.868H167.705C167.417 44.828 166.865 45.62 166.049 46.244C165.233 46.856 164.231 47.162 163.043 47.162C162.083 47.162 161.219 46.952 160.451 46.532C159.695 46.1 159.101 45.494 158.669 44.714C158.249 43.934 158.039 43.034 158.039 42.014C158.039 40.982 158.249 40.076 158.669 39.296C159.089 38.516 159.677 37.916 160.433 37.496C161.189 37.076 162.059 36.866 163.043 36.866C163.991 36.866 164.837 37.07 165.581 37.478C166.337 37.886 166.919 38.468 167.327 39.224C167.747 39.968 167.957 40.826 167.957 41.798ZM165.347 41.078C165.335 40.43 165.101 39.914 164.645 39.53C164.189 39.134 163.631 38.936 162.971 38.936C162.347 38.936 161.819 39.128 161.387 39.512C160.967 39.884 160.709 40.406 160.613 41.078H165.347ZM175.323 36.884C176.511 36.884 177.471 37.262 178.203 38.018C178.935 38.762 179.301 39.806 179.301 41.15V47H176.781V41.492C176.781 40.7 176.583 40.094 176.187 39.674C175.791 39.242 175.251 39.026 174.567 39.026C173.871 39.026 173.319 39.242 172.911 39.674C172.515 40.094 172.317 40.7 172.317 41.492V47H169.797V37.028H172.317V38.27C172.653 37.838 173.079 37.502 173.595 37.262C174.123 37.01 174.699 36.884 175.323 36.884ZM184.631 39.098V43.922C184.631 44.258 184.709 44.504 184.865 44.66C185.033 44.804 185.309 44.876 185.693 44.876H186.863V47H185.279C183.155 47 182.093 45.968 182.093 43.904V39.098H180.905V37.028H182.093V34.562H184.631V37.028H186.863V39.098H184.631Z" fill="#171100"/>
<path d="M64.714 16.978C65.8993 16.026 66.828 15.2467 67.5 14.64C68.172 14.024 68.7367 13.3847 69.194 12.722C69.6607 12.05 69.894 11.392 69.894 10.748C69.894 10.1413 69.7447 9.66533 69.446 9.32C69.1567 8.96533 68.6853 8.788 68.032 8.788C67.3973 8.788 66.9027 8.98867 66.548 9.39C66.2027 9.782 66.016 10.3093 65.988 10.972H64.756C64.7933 9.92667 65.1107 9.11933 65.708 8.55C66.3053 7.98067 67.0753 7.696 68.018 7.696C68.9793 7.696 69.74 7.962 70.3 8.494C70.8693 9.026 71.154 9.75867 71.154 10.692C71.154 11.4667 70.9207 12.2227 70.454 12.96C69.9967 13.688 69.474 14.332 68.886 14.892C68.298 15.4427 67.5467 16.0867 66.632 16.824H71.448V17.888H64.714V16.978ZM72.9207 12.834C72.9207 11.2287 73.1821 9.978 73.7047 9.082C74.2274 8.17667 75.1421 7.724 76.4487 7.724C77.7461 7.724 78.6561 8.17667 79.1787 9.082C79.7014 9.978 79.9627 11.2287 79.9627 12.834C79.9627 14.4673 79.7014 15.7367 79.1787 16.642C78.6561 17.5473 77.7461 18 76.4487 18C75.1421 18 74.2274 17.5473 73.7047 16.642C73.1821 15.7367 72.9207 14.4673 72.9207 12.834ZM78.7027 12.834C78.7027 12.022 78.6467 11.336 78.5347 10.776C78.4321 10.2067 78.2127 9.74933 77.8767 9.404C77.5501 9.05867 77.0741 8.886 76.4487 8.886C75.8141 8.886 75.3287 9.05867 74.9927 9.404C74.6661 9.74933 74.4467 10.2067 74.3347 10.776C74.2321 11.336 74.1807 12.022 74.1807 12.834C74.1807 13.674 74.2321 14.3787 74.3347 14.948C74.4467 15.5173 74.6661 15.9747 74.9927 16.32C75.3287 16.6653 75.8141 16.838 76.4487 16.838C77.0741 16.838 77.5501 16.6653 77.8767 16.32C78.2127 15.9747 78.4321 15.5173 78.5347 14.948C78.6467 14.3787 78.7027 13.674 78.7027 12.834ZM85.1782 13.114C85.1782 12.162 85.3928 11.308 85.8222 10.552C86.2515 9.78667 86.8348 9.18933 87.5722 8.76C88.3188 8.33067 89.1448 8.116 90.0502 8.116C91.1142 8.116 92.0428 8.37267 92.8362 8.886C93.6295 9.39933 94.2082 10.1273 94.5722 11.07H93.0462C92.7755 10.482 92.3835 10.0293 91.8702 9.712C91.3662 9.39467 90.7595 9.236 90.0502 9.236C89.3688 9.236 88.7575 9.39467 88.2162 9.712C87.6748 10.0293 87.2502 10.482 86.9422 11.07C86.6342 11.6487 86.4802 12.33 86.4802 13.114C86.4802 13.8887 86.6342 14.57 86.9422 15.158C87.2502 15.7367 87.6748 16.1847 88.2162 16.502C88.7575 16.8193 89.3688 16.978 90.0502 16.978C90.7595 16.978 91.3662 16.824 91.8702 16.516C92.3835 16.1987 92.7755 15.746 93.0462 15.158H94.5722C94.2082 16.0913 93.6295 16.8147 92.8362 17.328C92.0428 17.832 91.1142 18.084 90.0502 18.084C89.1448 18.084 88.3188 17.874 87.5722 17.454C86.8348 17.0247 86.2515 16.432 85.8222 15.676C85.3928 14.92 85.1782 14.066 85.1782 13.114ZM99.8146 18.126C99.096 18.126 98.4426 17.9627 97.8546 17.636C97.276 17.3093 96.8186 16.8473 96.4826 16.25C96.156 15.6433 95.9926 14.9433 95.9926 14.15C95.9926 13.366 96.1606 12.6753 96.4966 12.078C96.842 11.4713 97.3086 11.0093 97.8966 10.692C98.4846 10.3653 99.1426 10.202 99.8706 10.202C100.599 10.202 101.257 10.3653 101.845 10.692C102.433 11.0093 102.895 11.4667 103.231 12.064C103.576 12.6613 103.749 13.3567 103.749 14.15C103.749 14.9433 103.571 15.6433 103.217 16.25C102.871 16.8473 102.4 17.3093 101.803 17.636C101.205 17.9627 100.543 18.126 99.8146 18.126ZM99.8146 17.006C100.272 17.006 100.701 16.8987 101.103 16.684C101.504 16.4693 101.826 16.1473 102.069 15.718C102.321 15.2887 102.447 14.766 102.447 14.15C102.447 13.534 102.325 13.0113 102.083 12.582C101.84 12.1527 101.523 11.8353 101.131 11.63C100.739 11.4153 100.314 11.308 99.8566 11.308C99.39 11.308 98.9606 11.4153 98.5686 11.63C98.186 11.8353 97.878 12.1527 97.6446 12.582C97.4113 13.0113 97.2946 13.534 97.2946 14.15C97.2946 14.7753 97.4066 15.3027 97.6306 15.732C97.864 16.1613 98.172 16.4833 98.5546 16.698C98.9373 16.9033 99.3573 17.006 99.8146 17.006ZM112.228 10.328V18H110.954V16.866C110.711 17.258 110.37 17.566 109.932 17.79C109.502 18.0047 109.026 18.112 108.504 18.112C107.906 18.112 107.37 17.9907 106.894 17.748C106.418 17.496 106.04 17.1227 105.76 16.628C105.489 16.1333 105.354 15.5313 105.354 14.822V10.328H106.614V14.654C106.614 15.41 106.805 15.9933 107.188 16.404C107.57 16.8053 108.093 17.006 108.756 17.006C109.437 17.006 109.974 16.796 110.366 16.376C110.758 15.956 110.954 15.3447 110.954 14.542V10.328H112.228ZM115.653 11.574C115.877 11.1353 116.194 10.7947 116.605 10.552C117.025 10.3093 117.533 10.188 118.131 10.188V11.504H117.795C116.367 11.504 115.653 12.2787 115.653 13.828V18H114.379V10.328H115.653V11.574ZM122.317 18.126C121.729 18.126 121.202 18.028 120.735 17.832C120.269 17.6267 119.9 17.3467 119.629 16.992C119.359 16.628 119.209 16.2127 119.181 15.746H120.497C120.535 16.1287 120.712 16.4413 121.029 16.684C121.356 16.9267 121.781 17.048 122.303 17.048C122.789 17.048 123.171 16.9407 123.451 16.726C123.731 16.5113 123.871 16.2407 123.871 15.914C123.871 15.578 123.722 15.3307 123.423 15.172C123.125 15.004 122.663 14.8407 122.037 14.682C121.468 14.5327 121.001 14.3833 120.637 14.234C120.283 14.0753 119.975 13.8467 119.713 13.548C119.461 13.24 119.335 12.8387 119.335 12.344C119.335 11.952 119.452 11.5927 119.685 11.266C119.919 10.9393 120.25 10.6827 120.679 10.496C121.109 10.3 121.599 10.202 122.149 10.202C122.999 10.202 123.685 10.4167 124.207 10.846C124.73 11.2753 125.01 11.8633 125.047 12.61H123.773C123.745 12.2087 123.582 11.8867 123.283 11.644C122.994 11.4013 122.602 11.28 122.107 11.28C121.65 11.28 121.286 11.378 121.015 11.574C120.745 11.77 120.609 12.0267 120.609 12.344C120.609 12.596 120.689 12.806 120.847 12.974C121.015 13.1327 121.221 13.2633 121.463 13.366C121.715 13.4593 122.061 13.5667 122.499 13.688C123.05 13.8373 123.498 13.9867 123.843 14.136C124.189 14.276 124.483 14.4907 124.725 14.78C124.977 15.0693 125.108 15.4473 125.117 15.914C125.117 16.334 125.001 16.712 124.767 17.048C124.534 17.384 124.203 17.65 123.773 17.846C123.353 18.0327 122.868 18.126 122.317 18.126ZM133.916 13.87C133.916 14.1127 133.902 14.3693 133.874 14.64H127.742C127.789 15.396 128.045 15.9887 128.512 16.418C128.988 16.838 129.562 17.048 130.234 17.048C130.785 17.048 131.242 16.922 131.606 16.67C131.979 16.4087 132.241 16.0633 132.39 15.634H133.762C133.557 16.3713 133.146 16.9733 132.53 17.44C131.914 17.8973 131.149 18.126 130.234 18.126C129.506 18.126 128.853 17.9627 128.274 17.636C127.705 17.3093 127.257 16.8473 126.93 16.25C126.603 15.6433 126.44 14.9433 126.44 14.15C126.44 13.3567 126.599 12.6613 126.916 12.064C127.233 11.4667 127.677 11.0093 128.246 10.692C128.825 10.3653 129.487 10.202 130.234 10.202C130.962 10.202 131.606 10.3607 132.166 10.678C132.726 10.9953 133.155 11.434 133.454 11.994C133.762 12.5447 133.916 13.17 133.916 13.87ZM132.6 13.604C132.6 13.1187 132.493 12.7033 132.278 12.358C132.063 12.0033 131.769 11.7373 131.396 11.56C131.032 11.3733 130.626 11.28 130.178 11.28C129.534 11.28 128.983 11.4853 128.526 11.896C128.078 12.3067 127.821 12.876 127.756 13.604H132.6ZM138.314 18.126C137.726 18.126 137.198 18.028 136.732 17.832C136.265 17.6267 135.896 17.3467 135.626 16.992C135.355 16.628 135.206 16.2127 135.178 15.746H136.494C136.531 16.1287 136.708 16.4413 137.026 16.684C137.352 16.9267 137.777 17.048 138.3 17.048C138.785 17.048 139.168 16.9407 139.448 16.726C139.728 16.5113 139.868 16.2407 139.868 15.914C139.868 15.578 139.718 15.3307 139.42 15.172C139.121 15.004 138.659 14.8407 138.034 14.682C137.464 14.5327 136.998 14.3833 136.634 14.234C136.279 14.0753 135.971 13.8467 135.71 13.548C135.458 13.24 135.332 12.8387 135.332 12.344C135.332 11.952 135.448 11.5927 135.682 11.266C135.915 10.9393 136.246 10.6827 136.676 10.496C137.105 10.3 137.595 10.202 138.146 10.202C138.995 10.202 139.681 10.4167 140.204 10.846C140.726 11.2753 141.006 11.8633 141.044 12.61H139.77C139.742 12.2087 139.578 11.8867 139.28 11.644C138.99 11.4013 138.598 11.28 138.104 11.28C137.646 11.28 137.282 11.378 137.012 11.574C136.741 11.77 136.606 12.0267 136.606 12.344C136.606 12.596 136.685 12.806 136.844 12.974C137.012 13.1327 137.217 13.2633 137.46 13.366C137.712 13.4593 138.057 13.5667 138.496 13.688C139.046 13.8373 139.494 13.9867 139.84 14.136C140.185 14.276 140.479 14.4907 140.722 14.78C140.974 15.0693 141.104 15.4473 141.114 15.914C141.114 16.334 140.997 16.712 140.764 17.048C140.53 17.384 140.199 17.65 139.77 17.846C139.35 18.0327 138.864 18.126 138.314 18.126Z" fill="#5F5B53"/>
</svg>
