<svg width="183" height="56" viewBox="0 0 183 56" fill="none" xmlns="http://www.w3.org/2000/svg">
<circle cx="24" cy="28" r="24" fill="#FFF9E8"/>
<path d="M12.75 24.25V37H35.25V24.25H12.75ZM24.75 34H17.25C17.0511 34 16.8603 33.921 16.7197 33.7803C16.579 33.6397 16.5 33.4489 16.5 33.25C16.5 33.0511 16.579 32.8603 16.7197 32.7197C16.8603 32.579 17.0511 32.5 17.25 32.5H24.75C24.9489 32.5 25.1397 32.579 25.2803 32.7197C25.421 32.8603 25.5 33.0511 25.5 33.25C25.5 33.4489 25.421 33.6397 25.2803 33.7803C25.1397 33.921 24.9489 34 24.75 34ZM30.75 31H17.25C17.0511 31 16.8603 30.921 16.7197 30.7803C16.579 30.6397 16.5 30.4489 16.5 30.25C16.5 30.0511 16.579 29.8603 16.7197 29.7197C16.8603 29.579 17.0511 29.5 17.25 29.5H30.75C30.9489 29.5 31.1397 29.579 31.2803 29.7197C31.421 29.8603 31.5 30.0511 31.5 30.25C31.5 30.4489 31.421 30.6397 31.2803 30.7803C31.1397 30.921 30.9489 31 30.75 31ZM30.75 28H17.25C17.0511 28 16.8603 27.921 16.7197 27.7803C16.579 27.6397 16.5 27.4489 16.5 27.25C16.5 27.0511 16.579 26.8603 16.7197 26.7197C16.8603 26.579 17.0511 26.5 17.25 26.5H30.75C30.9489 26.5 31.1397 26.579 31.2803 26.7197C31.421 26.8603 31.5 27.0511 31.5 27.25C31.5 27.4489 31.421 27.6397 31.2803 27.7803C31.1397 27.921 30.9489 28 30.75 28Z" fill="#FFB900"/>
<path d="M12.75 19V22.75H35.25V19H12.75ZM15 21.625C14.8517 21.625 14.7067 21.581 14.5833 21.4986C14.46 21.4162 14.3639 21.2991 14.3071 21.162C14.2503 21.025 14.2355 20.8742 14.2644 20.7287C14.2933 20.5832 14.3648 20.4496 14.4697 20.3447C14.5746 20.2398 14.7082 20.1683 14.8537 20.1394C14.9992 20.1105 15.15 20.1253 15.287 20.1821C15.4241 20.2389 15.5412 20.335 15.6236 20.4583C15.706 20.5817 15.75 20.7267 15.75 20.875C15.75 21.0739 15.671 21.2647 15.5303 21.4053C15.3897 21.546 15.1989 21.625 15 21.625ZM17.25 21.625C17.1017 21.625 16.9567 21.581 16.8333 21.4986C16.71 21.4162 16.6139 21.2991 16.5571 21.162C16.5003 21.025 16.4855 20.8742 16.5144 20.7287C16.5433 20.5832 16.6148 20.4496 16.7197 20.3447C16.8246 20.2398 16.9582 20.1683 17.1037 20.1394C17.2492 20.1105 17.4 20.1253 17.537 20.1821C17.6741 20.2389 17.7912 20.335 17.8736 20.4583C17.956 20.5817 18 20.7267 18 20.875C18 21.0739 17.921 21.2647 17.7803 21.4053C17.6397 21.546 17.4489 21.625 17.25 21.625ZM19.5 21.625C19.3517 21.625 19.2067 21.581 19.0833 21.4986C18.96 21.4162 18.8639 21.2991 18.8071 21.162C18.7503 21.025 18.7355 20.8742 18.7644 20.7287C18.7933 20.5832 18.8648 20.4496 18.9697 20.3447C19.0746 20.2398 19.2082 20.1683 19.3537 20.1394C19.4992 20.1105 19.65 20.1253 19.787 20.1821C19.9241 20.2389 20.0412 20.335 20.1236 20.4583C20.206 20.5817 20.25 20.7267 20.25 20.875C20.25 21.0739 20.171 21.2647 20.0303 21.4053C19.8897 21.546 19.6989 21.625 19.5 21.625Z" fill="#FFB900"/>
<path d="M67.726 34.436V42.212C67.726 43.064 67.948 43.718 68.392 44.174C68.836 44.618 69.46 44.84 70.264 44.84C71.08 44.84 71.71 44.618 72.154 44.174C72.598 43.718 72.82 43.064 72.82 42.212V34.436H75.358V42.194C75.358 43.262 75.124 44.168 74.656 44.912C74.2 45.644 73.582 46.196 72.802 46.568C72.034 46.94 71.176 47.126 70.228 47.126C69.292 47.126 68.44 46.94 67.672 46.568C66.916 46.196 66.316 45.644 65.872 44.912C65.428 44.168 65.206 43.262 65.206 42.194V34.436H67.726ZM80.3128 34.436V47H77.7928V34.436H80.3128ZM89.5525 29.954L84.6925 50.258H82.2265L87.0865 29.954H89.5525ZM94.0405 34.436V42.212C94.0405 43.064 94.2625 43.718 94.7065 44.174C95.1505 44.618 95.7745 44.84 96.5785 44.84C97.3945 44.84 98.0245 44.618 98.4685 44.174C98.9125 43.718 99.1345 43.064 99.1345 42.212V34.436H101.672V42.194C101.672 43.262 101.438 44.168 100.97 44.912C100.514 45.644 99.8965 46.196 99.1165 46.568C98.3485 46.94 97.4905 47.126 96.5425 47.126C95.6065 47.126 94.7545 46.94 93.9865 46.568C93.2305 46.196 92.6305 45.644 92.1865 44.912C91.7425 44.168 91.5205 43.262 91.5205 42.194V34.436H94.0405ZM111.631 47L108.913 42.77L106.447 47H103.603L107.563 40.664L103.549 34.436H106.447L109.165 38.648L111.613 34.436H114.457L110.515 40.754L114.529 47H111.631ZM125.128 34.436C126.448 34.436 127.606 34.694 128.602 35.21C129.61 35.726 130.384 36.464 130.924 37.424C131.476 38.372 131.752 39.476 131.752 40.736C131.752 41.996 131.476 43.1 130.924 44.048C130.384 44.984 129.61 45.71 128.602 46.226C127.606 46.742 126.448 47 125.128 47H120.736V34.436H125.128ZM125.038 44.858C126.358 44.858 127.378 44.498 128.098 43.778C128.818 43.058 129.178 42.044 129.178 40.736C129.178 39.428 128.818 38.408 128.098 37.676C127.378 36.932 126.358 36.56 125.038 36.56H123.256V44.858H125.038ZM142.908 41.798C142.908 42.158 142.884 42.482 142.836 42.77H135.546C135.606 43.49 135.858 44.054 136.302 44.462C136.746 44.87 137.292 45.074 137.94 45.074C138.876 45.074 139.542 44.672 139.938 43.868H142.656C142.368 44.828 141.816 45.62 141 46.244C140.184 46.856 139.182 47.162 137.994 47.162C137.034 47.162 136.17 46.952 135.402 46.532C134.646 46.1 134.052 45.494 133.62 44.714C133.2 43.934 132.99 43.034 132.99 42.014C132.99 40.982 133.2 40.076 133.62 39.296C134.04 38.516 134.628 37.916 135.384 37.496C136.14 37.076 137.01 36.866 137.994 36.866C138.942 36.866 139.788 37.07 140.532 37.478C141.288 37.886 141.87 38.468 142.278 39.224C142.698 39.968 142.908 40.826 142.908 41.798ZM140.298 41.078C140.286 40.43 140.052 39.914 139.596 39.53C139.14 39.134 138.582 38.936 137.922 38.936C137.298 38.936 136.77 39.128 136.338 39.512C135.918 39.884 135.66 40.406 135.564 41.078H140.298ZM148.564 47.162C147.748 47.162 147.016 47.018 146.368 46.73C145.72 46.43 145.204 46.028 144.82 45.524C144.448 45.02 144.244 44.462 144.208 43.85H146.746C146.794 44.234 146.98 44.552 147.304 44.804C147.64 45.056 148.054 45.182 148.546 45.182C149.026 45.182 149.398 45.086 149.662 44.894C149.938 44.702 150.076 44.456 150.076 44.156C150.076 43.832 149.908 43.592 149.572 43.436C149.248 43.268 148.726 43.088 148.006 42.896C147.262 42.716 146.65 42.53 146.17 42.338C145.702 42.146 145.294 41.852 144.946 41.456C144.61 41.06 144.442 40.526 144.442 39.854C144.442 39.302 144.598 38.798 144.91 38.342C145.234 37.886 145.69 37.526 146.278 37.262C146.878 36.998 147.58 36.866 148.384 36.866C149.572 36.866 150.52 37.166 151.228 37.766C151.936 38.354 152.326 39.152 152.398 40.16H149.986C149.95 39.764 149.782 39.452 149.482 39.224C149.194 38.984 148.804 38.864 148.312 38.864C147.856 38.864 147.502 38.948 147.25 39.116C147.01 39.284 146.89 39.518 146.89 39.818C146.89 40.154 147.058 40.412 147.394 40.592C147.73 40.76 148.252 40.934 148.96 41.114C149.68 41.294 150.274 41.48 150.742 41.672C151.21 41.864 151.612 42.164 151.948 42.572C152.296 42.968 152.476 43.496 152.488 44.156C152.488 44.732 152.326 45.248 152.002 45.704C151.69 46.16 151.234 46.52 150.634 46.784C150.046 47.036 149.356 47.162 148.564 47.162ZM155.834 35.84C155.39 35.84 155.018 35.702 154.718 35.426C154.43 35.138 154.286 34.784 154.286 34.364C154.286 33.944 154.43 33.596 154.718 33.32C155.018 33.032 155.39 32.888 155.834 32.888C156.278 32.888 156.644 33.032 156.932 33.32C157.232 33.596 157.382 33.944 157.382 34.364C157.382 34.784 157.232 35.138 156.932 35.426C156.644 35.702 156.278 35.84 155.834 35.84ZM157.076 37.028V47H154.556V37.028H157.076ZM163.472 36.866C164.216 36.866 164.87 37.016 165.434 37.316C165.998 37.604 166.442 37.982 166.766 38.45V37.028H169.304V47.072C169.304 47.996 169.118 48.818 168.746 49.538C168.374 50.27 167.816 50.846 167.072 51.266C166.328 51.698 165.428 51.914 164.372 51.914C162.956 51.914 161.792 51.584 160.88 50.924C159.98 50.264 159.47 49.364 159.35 48.224H161.852C161.984 48.68 162.266 49.04 162.698 49.304C163.142 49.58 163.676 49.718 164.3 49.718C165.032 49.718 165.626 49.496 166.082 49.052C166.538 48.62 166.766 47.96 166.766 47.072V45.524C166.442 45.992 165.992 46.382 165.416 46.694C164.852 47.006 164.204 47.162 163.472 47.162C162.632 47.162 161.864 46.946 161.168 46.514C160.472 46.082 159.92 45.476 159.512 44.696C159.116 43.904 158.918 42.998 158.918 41.978C158.918 40.97 159.116 40.076 159.512 39.296C159.92 38.516 160.466 37.916 161.15 37.496C161.846 37.076 162.62 36.866 163.472 36.866ZM166.766 42.014C166.766 41.402 166.646 40.88 166.406 40.448C166.166 40.004 165.842 39.668 165.434 39.44C165.026 39.2 164.588 39.08 164.12 39.08C163.652 39.08 163.22 39.194 162.824 39.422C162.428 39.65 162.104 39.986 161.852 40.43C161.612 40.862 161.492 41.378 161.492 41.978C161.492 42.578 161.612 43.106 161.852 43.562C162.104 44.006 162.428 44.348 162.824 44.588C163.232 44.828 163.664 44.948 164.12 44.948C164.588 44.948 165.026 44.834 165.434 44.606C165.842 44.366 166.166 44.03 166.406 43.598C166.646 43.154 166.766 42.626 166.766 42.014ZM177.291 36.884C178.479 36.884 179.439 37.262 180.171 38.018C180.903 38.762 181.269 39.806 181.269 41.15V47H178.749V41.492C178.749 40.7 178.551 40.094 178.155 39.674C177.759 39.242 177.219 39.026 176.535 39.026C175.839 39.026 175.287 39.242 174.879 39.674C174.483 40.094 174.285 40.7 174.285 41.492V47H171.765V37.028H174.285V38.27C174.621 37.838 175.047 37.502 175.563 37.262C176.091 37.01 176.667 36.884 177.291 36.884Z" fill="#171100"/>
<path d="M64.714 16.978C65.8993 16.026 66.828 15.2467 67.5 14.64C68.172 14.024 68.7367 13.3847 69.194 12.722C69.6607 12.05 69.894 11.392 69.894 10.748C69.894 10.1413 69.7447 9.66533 69.446 9.32C69.1567 8.96533 68.6853 8.788 68.032 8.788C67.3973 8.788 66.9027 8.98867 66.548 9.39C66.2027 9.782 66.016 10.3093 65.988 10.972H64.756C64.7933 9.92667 65.1107 9.11933 65.708 8.55C66.3053 7.98067 67.0753 7.696 68.018 7.696C68.9793 7.696 69.74 7.962 70.3 8.494C70.8693 9.026 71.154 9.75867 71.154 10.692C71.154 11.4667 70.9207 12.2227 70.454 12.96C69.9967 13.688 69.474 14.332 68.886 14.892C68.298 15.4427 67.5467 16.0867 66.632 16.824H71.448V17.888H64.714V16.978ZM72.9207 12.834C72.9207 11.2287 73.1821 9.978 73.7047 9.082C74.2274 8.17667 75.1421 7.724 76.4487 7.724C77.7461 7.724 78.6561 8.17667 79.1787 9.082C79.7014 9.978 79.9627 11.2287 79.9627 12.834C79.9627 14.4673 79.7014 15.7367 79.1787 16.642C78.6561 17.5473 77.7461 18 76.4487 18C75.1421 18 74.2274 17.5473 73.7047 16.642C73.1821 15.7367 72.9207 14.4673 72.9207 12.834ZM78.7027 12.834C78.7027 12.022 78.6467 11.336 78.5347 10.776C78.4321 10.2067 78.2127 9.74933 77.8767 9.404C77.5501 9.05867 77.0741 8.886 76.4487 8.886C75.8141 8.886 75.3287 9.05867 74.9927 9.404C74.6661 9.74933 74.4467 10.2067 74.3347 10.776C74.2321 11.336 74.1807 12.022 74.1807 12.834C74.1807 13.674 74.2321 14.3787 74.3347 14.948C74.4467 15.5173 74.6661 15.9747 74.9927 16.32C75.3287 16.6653 75.8141 16.838 76.4487 16.838C77.0741 16.838 77.5501 16.6653 77.8767 16.32C78.2127 15.9747 78.4321 15.5173 78.5347 14.948C78.6467 14.3787 78.7027 13.674 78.7027 12.834ZM85.1782 13.114C85.1782 12.162 85.3928 11.308 85.8222 10.552C86.2515 9.78667 86.8348 9.18933 87.5722 8.76C88.3188 8.33067 89.1448 8.116 90.0502 8.116C91.1142 8.116 92.0428 8.37267 92.8362 8.886C93.6295 9.39933 94.2082 10.1273 94.5722 11.07H93.0462C92.7755 10.482 92.3835 10.0293 91.8702 9.712C91.3662 9.39467 90.7595 9.236 90.0502 9.236C89.3688 9.236 88.7575 9.39467 88.2162 9.712C87.6748 10.0293 87.2502 10.482 86.9422 11.07C86.6342 11.6487 86.4802 12.33 86.4802 13.114C86.4802 13.8887 86.6342 14.57 86.9422 15.158C87.2502 15.7367 87.6748 16.1847 88.2162 16.502C88.7575 16.8193 89.3688 16.978 90.0502 16.978C90.7595 16.978 91.3662 16.824 91.8702 16.516C92.3835 16.1987 92.7755 15.746 93.0462 15.158H94.5722C94.2082 16.0913 93.6295 16.8147 92.8362 17.328C92.0428 17.832 91.1142 18.084 90.0502 18.084C89.1448 18.084 88.3188 17.874 87.5722 17.454C86.8348 17.0247 86.2515 16.432 85.8222 15.676C85.3928 14.92 85.1782 14.066 85.1782 13.114ZM99.8146 18.126C99.096 18.126 98.4426 17.9627 97.8546 17.636C97.276 17.3093 96.8186 16.8473 96.4826 16.25C96.156 15.6433 95.9926 14.9433 95.9926 14.15C95.9926 13.366 96.1606 12.6753 96.4966 12.078C96.842 11.4713 97.3086 11.0093 97.8966 10.692C98.4846 10.3653 99.1426 10.202 99.8706 10.202C100.599 10.202 101.257 10.3653 101.845 10.692C102.433 11.0093 102.895 11.4667 103.231 12.064C103.576 12.6613 103.749 13.3567 103.749 14.15C103.749 14.9433 103.571 15.6433 103.217 16.25C102.871 16.8473 102.4 17.3093 101.803 17.636C101.205 17.9627 100.543 18.126 99.8146 18.126ZM99.8146 17.006C100.272 17.006 100.701 16.8987 101.103 16.684C101.504 16.4693 101.826 16.1473 102.069 15.718C102.321 15.2887 102.447 14.766 102.447 14.15C102.447 13.534 102.325 13.0113 102.083 12.582C101.84 12.1527 101.523 11.8353 101.131 11.63C100.739 11.4153 100.314 11.308 99.8566 11.308C99.39 11.308 98.9606 11.4153 98.5686 11.63C98.186 11.8353 97.878 12.1527 97.6446 12.582C97.4113 13.0113 97.2946 13.534 97.2946 14.15C97.2946 14.7753 97.4066 15.3027 97.6306 15.732C97.864 16.1613 98.172 16.4833 98.5546 16.698C98.9373 16.9033 99.3573 17.006 99.8146 17.006ZM112.228 10.328V18H110.954V16.866C110.711 17.258 110.37 17.566 109.932 17.79C109.502 18.0047 109.026 18.112 108.504 18.112C107.906 18.112 107.37 17.9907 106.894 17.748C106.418 17.496 106.04 17.1227 105.76 16.628C105.489 16.1333 105.354 15.5313 105.354 14.822V10.328H106.614V14.654C106.614 15.41 106.805 15.9933 107.188 16.404C107.57 16.8053 108.093 17.006 108.756 17.006C109.437 17.006 109.974 16.796 110.366 16.376C110.758 15.956 110.954 15.3447 110.954 14.542V10.328H112.228ZM115.653 11.574C115.877 11.1353 116.194 10.7947 116.605 10.552C117.025 10.3093 117.533 10.188 118.131 10.188V11.504H117.795C116.367 11.504 115.653 12.2787 115.653 13.828V18H114.379V10.328H115.653V11.574ZM122.317 18.126C121.729 18.126 121.202 18.028 120.735 17.832C120.269 17.6267 119.9 17.3467 119.629 16.992C119.359 16.628 119.209 16.2127 119.181 15.746H120.497C120.535 16.1287 120.712 16.4413 121.029 16.684C121.356 16.9267 121.781 17.048 122.303 17.048C122.789 17.048 123.171 16.9407 123.451 16.726C123.731 16.5113 123.871 16.2407 123.871 15.914C123.871 15.578 123.722 15.3307 123.423 15.172C123.125 15.004 122.663 14.8407 122.037 14.682C121.468 14.5327 121.001 14.3833 120.637 14.234C120.283 14.0753 119.975 13.8467 119.713 13.548C119.461 13.24 119.335 12.8387 119.335 12.344C119.335 11.952 119.452 11.5927 119.685 11.266C119.919 10.9393 120.25 10.6827 120.679 10.496C121.109 10.3 121.599 10.202 122.149 10.202C122.999 10.202 123.685 10.4167 124.207 10.846C124.73 11.2753 125.01 11.8633 125.047 12.61H123.773C123.745 12.2087 123.582 11.8867 123.283 11.644C122.994 11.4013 122.602 11.28 122.107 11.28C121.65 11.28 121.286 11.378 121.015 11.574C120.745 11.77 120.609 12.0267 120.609 12.344C120.609 12.596 120.689 12.806 120.847 12.974C121.015 13.1327 121.221 13.2633 121.463 13.366C121.715 13.4593 122.061 13.5667 122.499 13.688C123.05 13.8373 123.498 13.9867 123.843 14.136C124.189 14.276 124.483 14.4907 124.725 14.78C124.977 15.0693 125.108 15.4473 125.117 15.914C125.117 16.334 125.001 16.712 124.767 17.048C124.534 17.384 124.203 17.65 123.773 17.846C123.353 18.0327 122.868 18.126 122.317 18.126ZM133.916 13.87C133.916 14.1127 133.902 14.3693 133.874 14.64H127.742C127.789 15.396 128.045 15.9887 128.512 16.418C128.988 16.838 129.562 17.048 130.234 17.048C130.785 17.048 131.242 16.922 131.606 16.67C131.979 16.4087 132.241 16.0633 132.39 15.634H133.762C133.557 16.3713 133.146 16.9733 132.53 17.44C131.914 17.8973 131.149 18.126 130.234 18.126C129.506 18.126 128.853 17.9627 128.274 17.636C127.705 17.3093 127.257 16.8473 126.93 16.25C126.603 15.6433 126.44 14.9433 126.44 14.15C126.44 13.3567 126.599 12.6613 126.916 12.064C127.233 11.4667 127.677 11.0093 128.246 10.692C128.825 10.3653 129.487 10.202 130.234 10.202C130.962 10.202 131.606 10.3607 132.166 10.678C132.726 10.9953 133.155 11.434 133.454 11.994C133.762 12.5447 133.916 13.17 133.916 13.87ZM132.6 13.604C132.6 13.1187 132.493 12.7033 132.278 12.358C132.063 12.0033 131.769 11.7373 131.396 11.56C131.032 11.3733 130.626 11.28 130.178 11.28C129.534 11.28 128.983 11.4853 128.526 11.896C128.078 12.3067 127.821 12.876 127.756 13.604H132.6ZM138.314 18.126C137.726 18.126 137.198 18.028 136.732 17.832C136.265 17.6267 135.896 17.3467 135.626 16.992C135.355 16.628 135.206 16.2127 135.178 15.746H136.494C136.531 16.1287 136.708 16.4413 137.026 16.684C137.352 16.9267 137.777 17.048 138.3 17.048C138.785 17.048 139.168 16.9407 139.448 16.726C139.728 16.5113 139.868 16.2407 139.868 15.914C139.868 15.578 139.718 15.3307 139.42 15.172C139.121 15.004 138.659 14.8407 138.034 14.682C137.464 14.5327 136.998 14.3833 136.634 14.234C136.279 14.0753 135.971 13.8467 135.71 13.548C135.458 13.24 135.332 12.8387 135.332 12.344C135.332 11.952 135.448 11.5927 135.682 11.266C135.915 10.9393 136.246 10.6827 136.676 10.496C137.105 10.3 137.595 10.202 138.146 10.202C138.995 10.202 139.681 10.4167 140.204 10.846C140.726 11.2753 141.006 11.8633 141.044 12.61H139.77C139.742 12.2087 139.578 11.8867 139.28 11.644C138.99 11.4013 138.598 11.28 138.104 11.28C137.646 11.28 137.282 11.378 137.012 11.574C136.741 11.77 136.606 12.0267 136.606 12.344C136.606 12.596 136.685 12.806 136.844 12.974C137.012 13.1327 137.217 13.2633 137.46 13.366C137.712 13.4593 138.057 13.5667 138.496 13.688C139.046 13.8373 139.494 13.9867 139.84 14.136C140.185 14.276 140.479 14.4907 140.722 14.78C140.974 15.0693 141.104 15.4473 141.114 15.914C141.114 16.334 140.997 16.712 140.764 17.048C140.53 17.384 140.199 17.65 139.77 17.846C139.35 18.0327 138.864 18.126 138.314 18.126Z" fill="#5F5B53"/>
</svg>
